<?xml version="1.0" standalone="no"?>
<!DOCTYPE svg PUBLIC "-//W3C//DTD SVG 20010904//EN"
 "http://www.w3.org/TR/2001/REC-SVG-20010904/DTD/svg10.dtd">
<svg version="1.0" xmlns="http://www.w3.org/2000/svg"
 width="1120.000000pt" height="1120.000000pt" viewBox="0 0 1120.000000 1120.000000"
 preserveAspectRatio="xMidYMid meet">
<metadata>
Created by potrace 1.14, written by Peter Selinger 2001-2017
</metadata>
<g transform="translate(0.000000,1120.000000) scale(0.100000,-0.100000)"
fill="#000000" stroke="none">
<path d="M2 10684 l3 -516 75 -23 c74 -22 136 -43 395 -132 72 -24 321 -107
555 -184 234 -77 513 -169 620 -205 230 -78 723 -239 970 -318 145 -46 177
-54 188 -43 10 11 13 80 12 330 0 174 -4 327 -9 340 -12 32 -30 45 -81 56 -25
6 -115 32 -200 60 -85 27 -222 70 -305 96 -82 25 -175 54 -205 64 -30 10 -89
29 -130 41 -41 12 -93 28 -115 35 -22 7 -87 27 -145 44 -58 18 -181 56 -275
86 -93 30 -287 91 -430 136 -294 92 -459 147 -589 195 -145 54 -152 79 -29
113 44 11 86 21 95 21 9 0 58 9 110 20 243 50 454 93 568 115 69 13 213 42
320 65 107 22 249 52 315 65 252 53 251 54 -50 51 l-270 -2 -190 -46 c-448
-109 -957 -216 -1070 -225 -64 -5 -72 -3 -90 17 -17 19 -20 35 -18 114 1 50 6
103 12 119 10 25 9 27 -14 27 l-25 0 2 -516z"/>
<path d="M4990 10993 c0 -156 -4 -224 -16 -273 -9 -36 -16 -85 -16 -110 8
-397 8 -393 -14 -431 l-21 -35 74 -34 c202 -90 333 -264 412 -544 35 -123 37
-136 17 -136 -21 0 -44 -42 -54 -97 -8 -43 -9 -39 -9 44 0 68 -4 98 -16 117
-14 20 -16 41 -11 113 4 52 2 98 -4 113 -10 24 -11 24 -12 -10 -1 -41 -47
-232 -50 -210 -8 52 -10 77 -13 185 -3 103 -7 128 -29 176 -14 31 -43 76 -64
99 -47 52 -133 109 -171 114 -16 1 -38 8 -50 14 -33 18 -39 14 -13 -8 17 -15
19 -20 8 -20 -9 0 -21 6 -28 14 -12 15 -36 11 -56 -8 -5 -6 -11 -51 -11 -101
-1 -49 -3 -103 -6 -120 -20 -122 -29 -175 -37 -205 -5 -19 -12 -51 -15 -70 -4
-19 -8 -39 -9 -45 -1 -5 -8 -21 -15 -34 -8 -14 -9 -21 -2 -17 7 5 11 -3 11
-23 0 -16 -6 -32 -12 -35 -10 -5 -10 -7 -1 -12 9 -4 10 -11 4 -22 -11 -21 -9
-75 2 -83 5 -4 4 -17 -3 -29 -10 -18 -10 -21 2 -14 10 6 11 5 1 -7 -15 -19
-19 -51 -9 -67 4 -7 6 -16 3 -19 -9 -8 -517 -131 -588 -142 -35 -5 -89 -11
-119 -13 -30 -2 -58 -7 -62 -13 -4 -5 -8 -30 -8 -54 0 -65 -15 -41 -44 69 -39
151 -66 306 -66 379 0 140 73 343 163 453 26 31 47 59 47 62 0 2 -14 -3 -31
-11 -48 -24 -141 -28 -179 -8 -26 13 -52 16 -131 12 -54 -2 -96 0 -93 5 10 15
-53 8 -67 -8 -23 -27 -70 -46 -102 -40 -27 5 -29 4 -21 -17 11 -33 9 -115 -4
-177 -9 -37 -11 -107 -7 -215 13 -413 14 -540 4 -810 -7 -159 -12 -328 -13
-374 l-1 -83 -55 -29 c-30 -15 -50 -28 -43 -29 6 0 20 -3 30 -6 15 -5 16 -4 3
6 -12 9 -10 11 12 7 15 -2 29 1 32 7 3 7 5 6 5 -2 1 -10 5 -10 24 0 12 7 32
13 45 13 22 1 22 0 16 -86 -4 -51 -3 -99 3 -116 10 -27 9 -29 -15 -31 -14 -1
-31 -7 -38 -13 -7 -6 -19 -9 -26 -7 -7 3 -22 -4 -33 -14 -36 -35 -128 -71
-185 -74 -47 -2 -64 3 -116 31 -66 37 -97 65 -72 65 19 0 58 42 58 62 0 17 54
68 72 68 6 0 9 2 7 5 -3 2 -35 -7 -71 -20 -85 -31 -205 -52 -341 -60 -60 -4
-134 -13 -165 -21 -81 -20 -243 -103 -342 -175 -47 -34 -117 -77 -156 -96
l-71 -34 -64 37 c-35 19 -68 39 -74 44 -5 4 -29 13 -52 19 -35 10 -50 8 -95
-9 -68 -26 -112 -26 -138 0 -27 27 -25 50 11 166 26 84 30 111 27 175 -7 115
-51 174 -152 199 -23 6 -58 18 -79 27 -36 16 -42 16 -95 -2 -72 -24 -108 -41
-150 -74 -52 -41 -62 -68 -62 -174 0 -85 3 -97 25 -128 43 -59 105 -195 105
-232 0 -28 -8 -42 -39 -70 -47 -42 -92 -67 -121 -67 -13 0 -25 -10 -33 -27 -6
-16 -35 -62 -63 -104 -90 -133 -131 -291 -119 -454 7 -103 5 -112 -73 -275
-53 -113 -79 -186 -112 -319 -19 -77 -43 -138 -59 -151 -36 -30 -71 -85 -71
-114 0 -35 -15 -53 -65 -80 -16 -9 -52 -36 -79 -61 -49 -43 -49 -45 -32 -64
25 -28 97 -48 192 -55 75 -5 84 -3 115 19 18 14 38 25 45 25 7 0 39 -20 72
-45 33 -25 68 -45 78 -45 50 -1 69 -54 37 -100 -18 -25 -48 -122 -59 -190 -4
-26 4 -63 30 -140 20 -58 36 -121 36 -141 0 -41 -32 -89 -59 -89 -12 0 -28
-20 -48 -57 -26 -53 -35 -61 -98 -92 -258 -125 -416 -548 -363 -975 12 -98 12
-98 -11 -117 -20 -17 -41 -19 -172 -19 l-149 0 0 -505 0 -505 33 -1 c17 -1 34
-1 37 -1 3 0 78 3 165 6 88 3 232 10 320 15 88 6 261 13 385 16 124 4 227 8
230 10 7 4 323 17 735 30 192 7 223 10 240 26 42 38 140 72 305 105 168 34
170 35 243 87 103 74 168 101 248 103 46 1 91 11 150 33 586 216 1035 384
1173 437 93 36 300 114 460 174 160 60 395 149 521 198 127 49 286 111 355
137 69 27 197 77 285 112 88 35 225 88 305 118 80 29 185 72 233 94 49 23 123
51 165 62 43 12 142 55 227 100 219 114 529 232 717 274 83 18 144 16 68 -2
-83 -20 -175 -50 -225 -73 -27 -12 -97 -44 -155 -70 -58 -26 -127 -58 -155
-70 -27 -12 -115 -53 -195 -91 -80 -38 -151 -69 -158 -69 -17 0 -15 -10 9 -50
15 -24 17 -30 5 -21 -14 12 -16 10 -16 -17 0 -17 -5 -34 -10 -37 -16 -10 -12
-33 8 -38 13 -4 11 -5 -5 -6 -13 0 -31 -9 -42 -20 -19 -19 -25 -67 -10 -77 5
-3 6 1 3 9 -4 10 2 15 21 15 17 -1 22 -3 15 -8 -7 -4 -9 -13 -6 -19 4 -6 13
-8 19 -4 7 4 5 -2 -3 -12 -14 -17 -14 -18 9 -6 15 8 21 9 17 2 -4 -6 0 -11 8
-11 9 0 16 7 16 16 0 8 4 12 10 9 5 -3 19 -1 31 6 19 10 21 9 16 -6 -4 -9 -7
-19 -7 -21 0 -2 -8 -4 -17 -4 -16 0 -16 -2 -3 -11 11 -8 12 -12 3 -16 -7 -2
-13 -16 -13 -29 0 -28 -8 -31 -25 -7 -12 16 -13 15 -8 -8 3 -19 -1 -28 -19
-36 -13 -6 -43 -27 -68 -48 -25 -21 -70 -50 -100 -64 -56 -27 -65 -42 -55 -89
4 -18 10 -22 26 -17 18 6 19 5 8 -13 -11 -18 -9 -29 11 -71 13 -28 25 -51 26
-51 2 0 14 5 28 11 21 10 24 17 20 43 -3 17 -18 57 -33 89 -28 58 -25 78 5 33
9 -14 22 -22 29 -19 17 6 39 -14 47 -44 4 -16 2 -20 -10 -16 -12 5 -14 2 -8
-18 7 -21 17 -77 32 -177 11 -69 116 -152 194 -152 54 0 120 35 133 70 21 55
31 33 41 -85 5 -63 8 -76 23 -93 7 -7 10 -19 7 -27 -4 -8 -1 -15 5 -15 6 0 11
-6 11 -14 0 -7 7 -19 15 -26 9 -7 14 -19 11 -27 -3 -7 -1 -13 4 -13 17 0 15
-35 -3 -55 -18 -20 -18 -20 13 -23 49 -5 181 84 151 102 -5 4 -8 13 -4 21 3 9
-1 15 -11 15 -9 0 -16 5 -16 10 0 17 123 12 148 -6 42 -29 25 -99 -42 -163
-32 -31 -36 -40 -36 -87 0 -53 16 -104 32 -104 4 0 8 -9 8 -21 0 -11 -4 -17
-10 -14 -5 3 -10 0 -10 -8 0 -21 -39 -53 -100 -81 -65 -30 -47 -34 32 -7 70
24 178 92 216 136 17 18 35 50 42 69 11 36 7 60 -24 136 -5 13 16 15 156 16
90 0 300 3 468 7 168 4 424 9 570 12 276 5 684 14 925 20 732 19 1059 25 1328
25 l247 0 0 3145 c0 1730 -2 3145 -5 3145 -3 0 -14 -9 -25 -20 -42 -42 -110
-13 -110 47 0 28 -45 53 -94 53 -19 0 -46 4 -60 10 -13 5 -55 12 -93 15 -37 3
-81 8 -98 10 -16 2 -61 7 -100 10 -38 3 -80 8 -92 10 -30 7 -73 -11 -73 -30 0
-9 9 -33 19 -54 19 -36 25 -68 35 -183 6 -67 17 -82 62 -85 45 -3 64 -23 64
-70 0 -33 -28 -73 -52 -73 -6 0 3 -14 20 -31 62 -61 33 -149 -49 -149 -43 0
-114 29 -146 59 -19 18 -28 20 -70 12 -29 -6 -54 -6 -65 0 -10 5 -18 7 -18 3
0 -3 -6 -2 -12 4 -7 5 -39 12 -70 15 -74 7 -91 17 -112 66 -12 25 -29 44 -48
52 -29 12 -98 101 -98 127 0 7 -4 11 -8 8 -5 -3 -16 17 -26 45 l-18 50 -49 -2
c-40 -2 -51 2 -69 22 -17 20 -20 34 -16 82 5 67 26 97 66 97 27 0 67 -29 89
-66 11 -18 13 -17 46 20 59 66 44 88 -67 101 -83 10 -116 24 -143 60 -25 31
-26 39 -29 203 -2 94 -6 174 -9 180 -4 5 -7 85 -8 178 -2 183 -14 483 -23 579
-3 33 -9 86 -12 118 l-6 57 -484 0 -484 0 -2 -152 c-2 -196 -2 -196 5 -628 4
-209 3 -381 -2 -403 -12 -50 -44 -83 -86 -91 -20 -4 -44 -19 -61 -38 -26 -32
-26 -33 -19 -149 5 -97 4 -122 -9 -148 -21 -39 -83 -59 -127 -40 -27 11 -77
64 -92 99 -4 8 -16 29 -26 46 -23 37 -17 77 24 175 40 95 15 115 -126 103 -87
-7 -109 -17 -107 -47 2 -29 -21 -97 -33 -97 -5 0 -9 -6 -9 -13 0 -17 -36 -38
-53 -31 -35 13 -58 122 -33 162 3 6 -6 20 -20 31 -20 16 -31 18 -45 10 -15 -8
-19 -21 -19 -68 0 -41 -5 -64 -17 -78 -18 -20 -54 -38 -51 -25 1 4 -5 21 -14
38 -31 57 -104 85 -91 34 7 -25 -24 -52 -47 -40 -8 4 -21 5 -28 3 -11 -4 -11
-1 0 17 12 19 10 24 -16 46 -24 21 -34 24 -70 18 -22 -3 -67 -6 -100 -5 -75 2
-86 -7 -81 -70 4 -59 -5 -62 -71 -23 -24 14 -44 23 -44 20 0 -4 -11 1 -25 10
-25 16 -25 16 -40 -20 -9 -21 -18 -72 -22 -116 -5 -69 -3 -82 16 -114 13 -20
29 -36 37 -36 8 0 14 -6 14 -14 0 -8 6 -21 13 -28 38 -42 46 -81 21 -113 -13
-17 -16 -18 -24 -5 -5 8 -10 19 -10 24 0 5 -3 6 -7 2 -8 -8 -103 83 -103 99 0
6 -8 20 -19 31 -51 56 -55 83 -31 259 34 253 34 242 -2 249 -48 10 -108 7
-108 -5 0 -5 -5 -7 -11 -3 -8 4 -9 -1 -3 -17 4 -13 7 -32 6 -41 0 -9 6 -22 14
-29 20 -16 18 -94 -3 -130 -18 -30 -45 -45 -63 -34 -6 3 -10 -4 -11 -17 l0
-23 -10 24 c-6 16 -6 28 2 37 17 20 1 105 -24 132 -11 12 -17 22 -13 22 4 0 0
10 -8 22 -9 12 -16 30 -16 39 0 30 -29 43 -90 41 -31 -1 -86 4 -121 13 -77 18
-180 20 -197 3 -7 -7 -12 -24 -12 -40 0 -41 -20 -76 -46 -81 -25 -4 -44 8 -23
15 7 2 2 15 -12 33 -13 17 -29 39 -35 50 -15 28 -38 25 -43 -5 -5 -38 -57 -83
-88 -75 -23 5 -25 9 -21 61 l3 56 -55 27 c-31 15 -60 38 -67 52 -8 17 -12 138
-14 404 -1 209 -4 426 -7 483 l-5 102 -469 0 -468 0 0 -207z m1638 -1078 c-3
-32 -13 -64 -27 -83 -23 -33 -23 -33 -66 6 -24 22 -17 57 18 94 59 63 81 58
75 -17z m1529 -125 c19 0 40 -22 53 -55 8 -21 6 -31 -12 -55 -20 -28 -20 -30
-3 -56 9 -14 25 -28 34 -31 9 -2 27 -20 40 -39 20 -29 25 -52 30 -134 6 -92 8
-101 36 -130 26 -27 30 -38 29 -88 0 -31 -8 -95 -18 -142 -20 -101 -22 -145
-11 -267 7 -77 6 -93 -6 -93 -11 0 -126 31 -213 57 -17 6 -18 13 -12 102 12
163 8 330 -10 414 -9 44 -5 159 7 173 6 8 8 14 4 14 -4 0 0 11 9 25 9 13 16
33 16 44 0 11 5 23 10 26 6 3 10 19 10 36 0 16 6 29 13 30 9 0 9 2 -1 6 -6 2
-10 9 -6 14 3 5 0 8 -7 7 -7 -2 -15 6 -17 17 -2 11 -10 24 -18 28 -20 11 -19
87 1 87 8 0 15 8 16 18 0 10 3 12 6 5 2 -7 11 -13 20 -13z m-829 -11 c8 -12 9
-18 3 -14 -6 3 -11 2 -11 -4 0 -5 6 -12 13 -14 6 -3 2 -6 -9 -6 -23 -1 -40 24
-23 34 5 4 7 11 4 16 -4 5 -2 9 2 9 5 0 14 -9 21 -21z m-2513 -269 c-3 -5 -11
-10 -16 -10 -6 0 -7 5 -4 10 3 6 11 10 16 10 6 0 7 -4 4 -10z m1654 -16 c26
-33 26 -45 0 -68 -27 -22 -61 -15 -79 18 -11 22 -11 29 4 51 21 32 49 32 75
-1z m735 -176 c17 -24 21 -94 7 -117 -13 -21 -68 -4 -90 28 -20 28 -20 28 1
69 23 49 57 56 82 20z m-239 -19 c-4 -5 3 -9 13 -9 12 0 24 -11 31 -29 7 -15
24 -34 38 -42 49 -27 65 -89 39 -161 -8 -21 -10 -38 -6 -38 4 0 8 -18 8 -40 1
-54 -16 -62 -131 -56 -107 6 -127 11 -128 35 -1 35 -8 54 -28 75 -20 21 -26
42 -23 79 2 12 11 17 33 17 16 0 28 -4 25 -9 -3 -5 1 -11 9 -14 7 -3 17 -22
20 -41 4 -19 11 -34 16 -33 5 1 22 -20 38 -46 26 -45 29 -47 45 -32 22 23 20
49 -8 93 -24 36 -30 65 -42 190 -4 41 -2 62 5 62 6 0 11 7 11 15 0 13 4 14 20
5 11 -6 18 -15 15 -21z m-237 -51 c-2 -7 2 -12 9 -13 6 0 15 -4 20 -9 5 -6 2
-6 -6 -1 -11 6 -13 4 -8 -8 4 -11 2 -14 -9 -10 -7 3 -14 9 -14 13 0 5 -3 15
-6 24 -3 9 -1 16 5 16 6 0 10 -5 9 -12z m1868 -239 c3 -13 7 -55 10 -94 3 -38
8 -95 12 -125 4 -30 5 -88 2 -127 l-5 -73 -51 24 -50 23 3 72 c2 48 10 86 26
119 18 38 23 64 23 125 -1 43 3 79 9 81 13 4 15 3 21 -25z m-1088 -33 c20 -7
23 -14 21 -50 -2 -23 1 -48 5 -55 6 -9 -1 -11 -30 -5 -39 7 -46 12 -89 52 -23
21 -32 51 -20 64 8 7 85 3 113 -6z m3417 -17 c-5 -15 -4 -19 4 -15 6 4 11 5
11 2 0 -3 -10 -11 -22 -17 -18 -10 -24 -8 -34 6 -11 15 -11 20 4 31 27 21 44
17 37 -7z m-6582 -33 c15 -4 27 -11 27 -16 0 -5 -6 -8 -12 -6 -7 3 -25 7 -40
10 -16 4 -28 11 -28 16 0 5 6 8 13 6 6 -3 24 -7 40 -10z m1806 0 c-2 -2 -20
-11 -39 -21 l-35 -17 20 20 c11 12 29 21 39 21 11 1 17 -1 15 -3z m966 -74
c-6 -7 -45 9 -45 18 0 4 11 3 24 -3 14 -7 23 -13 21 -15z m-2790 -32 c3 -5 -3
-10 -14 -10 -11 0 -23 5 -26 10 -3 6 3 10 14 10 11 0 23 -4 26 -10z m316 -42
c21 -24 29 -43 29 -72 0 -22 7 -63 17 -92 15 -49 15 -54 -1 -78 -9 -14 -29
-28 -44 -32 -15 -3 -36 -9 -47 -13 -18 -7 -17 -10 15 -30 19 -11 45 -21 56
-21 21 0 74 -35 74 -49 0 -4 -18 -8 -40 -9 -23 -2 -52 -7 -65 -12 -17 -6 -27
-5 -35 5 -7 8 -16 13 -20 10 -4 -3 -13 2 -19 9 -9 11 -8 39 5 121 12 71 14
109 7 116 -17 17 -68 -41 -87 -101 -10 -30 -23 -62 -30 -72 -11 -15 -15 -16
-40 -3 -15 8 -36 25 -46 37 -40 52 -61 72 -34 33 56 -81 127 -155 195 -206 69
-51 70 -51 85 -31 14 20 14 20 43 -9 16 -16 34 -29 40 -29 18 0 13 7 -21 30
l-33 22 40 -7 c92 -14 137 -16 151 -4 8 6 14 8 14 3 0 -5 -15 -21 -33 -35 -48
-38 -58 -43 -51 -25 4 10 1 16 -9 16 -8 0 -14 -8 -13 -17 1 -15 -7 -18 -43
-17 l-44 1 34 -28 c32 -27 63 -40 132 -54 15 -3 27 -10 27 -16 0 -7 -9 -9 -21
-6 -12 3 -22 0 -25 -8 -8 -21 -62 -27 -88 -9 -13 8 -40 39 -59 68 -20 29 -66
80 -103 112 -207 180 -295 313 -293 446 0 35 3 57 6 50 3 -7 18 -19 33 -27 32
-17 55 -20 28 -4 -52 30 26 41 83 12 l34 -18 -45 -5 -45 -5 57 -18 c32 -10 57
-23 55 -29 -1 -6 3 -12 10 -15 18 -7 113 97 113 124 0 32 17 29 51 -9z m-226
-8 c3 -5 1 -10 -4 -10 -6 0 -11 5 -11 10 0 6 2 10 4 10 3 0 8 -4 11 -10z m597
-105 c-17 -52 -33 -56 -67 -19 -36 39 -19 55 66 63 15 1 15 -3 1 -44z m2864 5
c6 -6 21 -6 41 -1 21 6 35 5 43 -2 10 -9 11 -9 5 3 -7 13 -6 13 7 2 8 -7 23
-9 33 -6 11 5 21 1 27 -10 7 -13 21 -17 54 -15 24 2 46 0 50 -4 4 -4 23 -7 41
-7 19 0 32 -4 28 -9 -3 -5 11 -9 32 -8 46 1 133 -13 133 -22 0 -8 62 -36 73
-33 4 1 7 -5 7 -13 0 -14 12 -19 33 -16 4 0 7 -3 7 -9 0 -5 7 -10 15 -10 8 0
23 -4 33 -9 46 -25 133 -62 190 -80 34 -11 72 -27 84 -35 12 -9 30 -16 39 -16
9 0 22 -6 28 -13 6 -8 25 -14 42 -15 17 0 37 -6 45 -13 8 -6 17 -9 21 -6 10
11 33 -14 33 -34 0 -11 10 -21 25 -25 13 -3 29 -12 35 -19 7 -9 55 -13 173
-14 194 -1 248 -7 240 -27 -3 -8 -8 -12 -12 -10 -4 3 -13 -10 -21 -27 -7 -18
-18 -35 -23 -38 -5 -4 -13 -30 -18 -59 -9 -55 -28 -79 -66 -80 -23 0 -45 -20
-90 -77 -21 -27 -22 -34 -11 -52 7 -12 16 -21 20 -21 5 0 8 -6 8 -14 0 -8 18
-33 40 -55 22 -22 40 -44 40 -48 0 -5 9 -15 20 -23 11 -8 20 -18 20 -22 0 -4
-9 -6 -20 -5 -12 1 -20 8 -20 19 0 20 -8 22 -28 9 -22 -14 -10 -46 16 -44 24
3 28 -13 11 -37 -8 -12 -9 -10 -4 7 5 18 3 22 -10 17 -9 -4 -25 2 -38 14 -12
11 -45 31 -74 46 -61 31 -91 66 -137 167 -41 91 -73 125 -154 163 -34 16 -62
35 -62 42 0 6 -7 17 -15 24 -9 7 -14 19 -11 26 3 8 -5 20 -17 29 -30 21 -44
19 -23 -4 15 -16 15 -19 2 -24 -9 -4 -22 1 -31 9 -8 8 -19 13 -24 10 -5 -3
-14 1 -21 9 -7 8 -20 15 -30 15 -10 0 -23 7 -30 15 -7 8 -16 15 -20 15 -5 0
-30 10 -57 22 -26 12 -52 20 -56 19 -14 -3 -77 22 -77 31 0 5 -11 6 -24 4 -14
-2 -45 2 -71 9 -25 8 -80 17 -123 21 -42 4 -106 17 -142 29 -103 35 -161 57
-215 78 -27 11 -54 20 -60 22 -5 1 -30 7 -54 14 -23 7 -49 10 -57 7 -8 -3 -23
3 -34 14 -28 28 -108 30 -158 4 -15 -7 -33 -14 -39 -14 -7 0 -13 -5 -13 -11 0
-5 -4 -8 -10 -4 -14 8 -50 -26 -51 -50 0 -11 -3 -14 -6 -7 -4 10 -8 9 -17 -4
-7 -9 -25 -18 -40 -19 -15 -2 -33 -8 -40 -14 -11 -9 -84 -23 -126 -24 -8 0
-21 -4 -28 -10 -7 -5 -15 -7 -19 -4 -3 4 -14 2 -24 -3 -28 -16 -47 13 -54 85
-4 36 -6 68 -4 70 2 2 24 -1 49 -5 58 -11 140 5 162 32 13 14 16 30 13 57 -10
66 1 68 118 22 124 -48 169 -51 221 -16 20 14 41 25 46 25 4 0 39 18 78 40 38
22 74 40 81 40 7 0 9 5 6 10 -8 13 28 13 41 0z m-76 -287 c54 -15 135 -47 215
-82 22 -10 51 -23 65 -28 19 -8 8 -10 -50 -8 -71 2 -114 11 -205 40 -22 7 -56
16 -76 19 -19 3 -45 15 -57 27 -12 11 -22 17 -22 13 0 -4 -9 1 -21 12 l-21 19
24 6 c28 8 73 2 148 -18z m-3765 -23 c-3 -5 -1 -10 5 -10 8 0 8 -6 0 -20 -14
-25 -4 -43 21 -37 10 3 19 2 21 -2 2 -3 23 -13 48 -21 28 -9 46 -22 48 -33 5
-23 -51 -107 -112 -170 -40 -41 -52 -48 -79 -45 l-32 3 -7 95 c-10 142 19 250
67 250 15 0 24 -4 20 -10z m755 -20 c0 -5 -5 -10 -11 -10 -5 0 -7 5 -4 10 3 6
8 10 11 10 2 0 4 -4 4 -10z m-35 -10 c3 -5 -3 -10 -14 -10 -11 0 -23 5 -26 10
-3 6 3 10 14 10 11 0 23 -4 26 -10z m-1076 -38 c-46 -32 -99 -84 -99 -98 0 -7
-4 -15 -8 -18 -5 -3 -6 7 -4 22 5 30 124 142 130 122 2 -6 -6 -19 -19 -28z
m4544 -118 c41 -6 45 -8 42 -33 -13 -104 -18 -123 -31 -128 -7 -3 -11 -10 -7
-17 4 -6 -1 -5 -11 3 -26 22 -38 50 -51 118 -13 70 -16 67 58 57z m-588 -79
c18 -57 16 -82 -10 -91 -28 -11 -47 22 -40 69 3 23 6 50 6 60 0 37 28 14 44
-38z m2195 34 c12 -7 11 -8 -5 -8 -11 0 -31 6 -45 14 l-25 15 30 -6 c17 -4 37
-10 45 -15z m-106 -14 c79 -11 96 -22 89 -59 -3 -17 -7 -33 -9 -35 -2 -2 -41
16 -88 39 -56 29 -82 48 -79 57 3 8 13 12 22 9 9 -2 38 -7 65 -11z m699 -60
c15 -19 34 -55 41 -80 22 -71 14 -75 -139 -81 -72 -2 -165 -6 -207 -8 -43 -2
-78 1 -78 5 0 5 -6 6 -13 3 -20 -7 -41 44 -26 62 6 8 16 14 21 14 5 0 25 7 46
16 20 10 43 18 51 20 25 5 125 48 174 75 60 32 88 27 130 -26z m-3052 16 c-8
-15 -23 -19 -73 -20 -85 -2 -109 -6 -135 -19 -12 -7 -30 -12 -40 -12 -10 0
-38 -10 -63 -22 -25 -12 -48 -22 -51 -22 -4 -1 -41 -27 -83 -58 -75 -58 -96
-68 -96 -47 0 5 -4 7 -10 4 -6 -3 -10 5 -10 19 0 13 -3 33 -6 43 -5 14 -4 15
4 4 6 -9 17 -11 28 -7 11 4 20 7 21 7 7 -1 101 52 128 73 36 28 126 54 202 58
29 2 53 6 53 11 0 4 32 7 70 7 66 0 70 -1 61 -19z m2277 -30 c18 -7 32 -19 32
-26 0 -6 7 -26 16 -44 14 -28 20 -31 45 -26 21 5 29 3 29 -8 0 -14 98 -111
113 -112 11 0 48 -66 44 -78 -2 -6 -33 16 -69 49 -141 127 -191 164 -205 153
-9 -8 -26 -7 -62 5 -28 9 -60 16 -73 16 -26 1 -58 22 -58 39 0 6 7 11 16 11 8
0 12 5 9 10 -3 6 -4 13 -2 18 8 12 131 7 165 -7z m-2881 -83 c-3 -7 -5 -2 -5
12 0 14 2 19 5 13 2 -7 2 -19 0 -25z m-1584 -24 c50 -17 56 -24 33 -43 -16
-14 -29 -9 -85 33 -29 21 -31 26 -15 26 11 0 41 -7 67 -16z m2266 -15 c27 -10
31 -15 26 -33 -20 -61 -17 -80 19 -123 42 -48 44 -68 14 -100 -22 -24 -48 -31
-48 -13 0 6 -17 8 -37 6 -52 -5 -93 -17 -93 -26 0 -4 -9 -10 -20 -13 -42 -11
-35 -37 27 -95 34 -32 63 -69 67 -86 l7 -28 -28 22 c-15 12 -28 25 -27 28 1 4
-16 20 -37 37 -22 16 -39 35 -39 42 0 9 -16 13 -52 13 -68 -1 -91 -26 -78 -86
10 -45 61 -94 97 -94 29 0 31 -30 5 -54 -13 -11 -28 -14 -48 -10 -24 4 -36 0
-62 -26 -18 -17 -35 -44 -38 -60 -6 -28 -44 -74 -44 -53 0 13 -71 43 -100 43
-11 0 -20 4 -20 8 0 5 -7 9 -15 9 -8 0 -15 -7 -15 -14 0 -8 -4 -11 -10 -8 -5
3 -10 2 -10 -4 0 -5 5 -11 12 -13 8 -3 5 -12 -10 -28 l-22 -24 0 53 c0 47 2
52 15 41 13 -11 14 -10 9 4 -5 12 0 19 16 23 21 6 22 7 5 19 -16 12 -16 14 -1
29 19 19 21 45 4 46 -10 0 -10 2 0 6 10 4 9 8 -5 19 -16 12 -16 15 -3 23 11 8
24 1 52 -26 37 -36 38 -36 59 -17 12 10 24 18 27 16 4 -2 8 2 10 10 2 9 0 8
-7 -2 -9 -13 -11 -13 -11 2 0 9 5 20 11 24 19 11 0 87 -51 204 -28 62 -50 120
-50 130 0 26 42 73 96 109 97 64 313 101 403 70z m3314 -93 c14 -42 -6 -54
-37 -23 -24 24 -25 32 -17 76 3 12 47 -31 54 -53z m-5743 4 c8 -5 11 -10 5
-10 -5 0 -21 10 -35 21 -24 20 -5 13 30 -11z m-364 -42 l29 -32 -27 17 c-20
12 -28 13 -31 4 -2 -6 -4 0 -4 16 0 15 0 27 1 27 1 0 15 -14 32 -32z m5349
-19 c11 -17 -1 -21 -15 -4 -8 9 -8 15 -2 15 6 0 14 -5 17 -11z m548 -81 c18
-68 18 -68 -4 -90 l-21 -23 7 23 c4 15 2 22 -8 22 -7 0 -19 12 -25 26 -7 14
-16 23 -21 20 -5 -4 -11 -1 -13 6 -3 9 -9 8 -22 -4 -12 -13 -23 -15 -41 -8
-13 5 -32 9 -42 10 -47 2 -90 8 -105 15 -10 4 -25 5 -33 1 -8 -3 -15 -1 -15 5
0 6 -4 7 -10 4 -5 -3 -10 -2 -10 2 0 5 19 17 43 27 44 20 129 31 237 31 l65 0
18 -67z m-3701 -72 c22 -32 -15 -57 -50 -35 -16 10 -42 67 -42 93 0 8 83 -44
92 -58z m2559 16 c-6 -2 -9 -8 -5 -13 3 -5 0 -9 -5 -9 -14 0 -14 6 1 33 8 17
13 18 16 7 3 -7 0 -16 -7 -18z m1054 8 c-4 -6 -11 -8 -16 -5 -5 4 -9 1 -9 -5
0 -6 -5 -8 -10 -5 -15 9 -2 25 21 25 11 0 17 -5 14 -10z m-5360 -64 c6 -4 1
-4 -10 2 -11 6 -29 21 -40 34 -19 22 -19 22 10 -2 17 -14 35 -29 40 -34z
m-3175 15 c0 -25 -29 -34 -75 -25 -42 7 -40 11 12 29 52 19 63 18 63 -4z
m1558 -15 c2 -16 -2 -40 -9 -53 -17 -31 -16 -121 1 -159 12 -28 11 -36 -3 -67
-9 -19 -17 -44 -17 -54 0 -11 -9 -46 -20 -79 -18 -51 -19 -65 -9 -101 6 -23 8
-46 5 -52 -4 -5 -2 -59 4 -120 10 -101 10 -113 -8 -153 -11 -24 -20 -65 -20
-93 -1 -28 -6 -63 -11 -78 -15 -40 -14 -84 5 -123 18 -37 15 -89 -6 -141 -11
-26 -11 -41 -1 -86 19 -77 9 -337 -18 -512 -13 -77 -25 -155 -27 -172 -3 -18
-16 -45 -29 -60 -14 -16 -29 -34 -35 -40 -6 -7 -15 -13 -20 -13 -14 0 -80 71
-80 86 0 10 -7 11 -30 3 -16 -6 -30 -15 -30 -20 0 -5 -13 -15 -30 -24 -16 -8
-48 -42 -72 -75 -23 -33 -46 -60 -51 -60 -4 0 -6 -4 -3 -9 3 -5 -5 -12 -19
-15 -18 -5 -23 -11 -18 -24 5 -14 4 -15 -8 -6 -8 6 -24 10 -36 9 -12 -1 -20 2
-18 6 3 4 -8 12 -24 17 -29 10 -30 10 -40 -36 -19 -85 -30 -292 -36 -632 -5
-347 -19 -598 -36 -662 -11 -42 -45 -73 -98 -88 -20 -6 -129 -14 -242 -17
l-207 -6 -12 23 c-10 18 -10 54 0 168 20 233 0 445 -61 627 -38 114 -70 168
-132 226 l-50 46 -8 99 c-4 55 -12 112 -18 127 -24 61 -11 128 66 342 65 180
104 294 117 343 8 29 40 98 72 153 l57 100 -6 72 c-8 87 -2 101 75 177 52 51
57 61 73 133 25 112 18 183 -23 235 l-32 40 0 140 c0 132 -2 146 -31 229 -40
112 -63 157 -91 178 -22 16 -13 16 132 8 259 -14 258 -14 475 76 54 23 138 56
185 72 101 37 456 129 485 126 14 -1 21 -11 23 -31z m6003 11 c-13 -13 -26 -3
-16 12 3 6 11 8 17 5 6 -4 6 -10 -1 -17z m65 -16 c52 -79 12 -146 -50 -82
l-28 30 21 27 c11 14 18 30 15 35 -5 9 3 29 11 29 3 0 16 -18 31 -39z m914
-31 c-6 -11 -5 -21 2 -28 9 -9 9 -15 0 -24 -17 -17 -34 34 -22 66 7 19 5 26
-6 30 -8 3 -12 11 -8 17 11 18 44 -42 34 -61z m-5217 10 c-21 -20 -37 -27 -52
-23 -24 6 -18 23 8 23 11 0 29 9 42 19 36 29 38 14 2 -19z m-3606 -52 c-19
-29 -47 -91 -63 -138 -16 -47 -35 -91 -42 -98 -6 -7 -9 -24 -6 -36 5 -20 2
-23 -23 -23 -15 0 -23 2 -16 4 7 2 9 11 6 19 -3 8 1 22 8 31 10 12 10 15 2 9
-48 -28 52 230 111 289 24 24 28 25 42 11 14 -14 12 -21 -19 -68z m3993 52
c12 -12 25 -18 30 -15 5 3 5 -6 1 -22 -4 -16 -6 -34 -4 -40 3 -7 -1 -13 -9
-13 -10 0 -10 -2 0 -8 9 -6 6 -14 -12 -29 l-24 -21 -6 21 c-7 27 -8 147 -1
147 3 0 14 -9 25 -20z m-480 0 c8 -5 11 -10 5 -10 -5 0 -17 5 -25 10 -8 5 -10
10 -5 10 6 0 17 -5 25 -10z m2477 -14 c-3 -7 -1 -18 4 -23 11 -11 -2 -54 -16
-55 -16 0 -28 33 -16 45 6 6 11 19 11 29 0 10 5 18 11 18 6 0 9 -6 6 -14z
m-5657 -83 c0 -7 -9 -13 -20 -13 -22 0 -26 20 -8 38 13 13 28 -1 28 -25z
m-467 -31 c-39 -34 -42 -41 -39 -77 2 -22 0 -45 -5 -51 -5 -6 -10 -43 -10 -83
-1 -39 -5 -74 -10 -77 -5 -3 -7 -9 -4 -14 3 -5 -4 -14 -16 -21 -18 -9 -24 -8
-31 5 -6 11 -17 14 -32 10 -14 -3 -27 -1 -31 6 -6 9 -10 9 -16 -1 -6 -11 -13
-11 -26 -3 -26 16 -27 48 -5 91 11 21 27 59 36 84 13 36 29 55 81 93 69 51
137 88 145 79 3 -2 -14 -21 -37 -41z m187 18 c0 -5 -4 -10 -10 -10 -5 0 -10 5
-10 10 0 6 5 10 10 10 6 0 10 -4 10 -10z m160 -110 c0 -5 -4 -10 -10 -10 -5 0
-10 5 -10 10 0 6 5 10 10 10 6 0 10 -4 10 -10z m47 -35 c-18 -17 -27 -19 -27
-6 0 16 34 45 38 32 2 -6 -3 -18 -11 -26z m4960 -37 c-3 -8 -6 -5 -6 6 -1 11
2 17 5 13 3 -3 4 -12 1 -19z m1119 -20 c-2 -24 -5 -44 -5 -46 -2 -7 -27 24
-34 40 -4 12 1 23 16 33 12 8 23 15 25 15 2 0 1 -19 -2 -42z m2714 -18 c0 -5
-4 -10 -10 -10 -5 0 -10 5 -10 10 0 6 5 10 10 10 6 0 10 -4 10 -10z m-6983
-29 c16 -1 21 -5 16 -17 -4 -10 -14 -14 -29 -11 -13 2 -21 1 -19 -3 3 -5 -2
-11 -11 -14 -21 -8 -49 -8 -41 1 4 3 2 12 -4 19 -22 26 -8 30 88 25z m120 -55
c-2 -6 -10 -11 -18 -11 -8 0 -17 -4 -21 -10 -5 -6 -8 -4 -8 6 0 8 5 20 11 26
14 14 41 5 36 -11z m3496 -6 c4 0 6 4 3 8 -3 5 5 8 17 7 17 -1 22 -8 23 -33 1
-18 -4 -36 -10 -41 -17 -14 -56 20 -62 54 -4 24 -3 28 7 18 7 -7 17 -13 22
-13z m-3594 -111 c-11 -11 -21 -18 -24 -16 -2 1 -10 -7 -18 -17 -9 -13 -16
-15 -21 -8 -8 14 28 52 49 52 8 0 14 3 14 8 -3 19 2 26 10 13 6 -9 2 -20 -10
-32z m1398 -18 c-15 -6 -11 -14 28 -53 37 -38 41 -45 23 -41 -18 3 -13 -4 22
-37 25 -22 44 -45 43 -50 -12 -45 289 -210 382 -210 9 0 13 -4 10 -10 -3 -5
-22 -10 -41 -10 -19 0 -34 -4 -34 -9 0 -21 168 -29 188 -9 6 6 15 9 18 5 13
-13 -123 -47 -188 -47 -23 0 -112 57 -129 82 -8 13 -97 19 -105 7 -3 -5 9 -15
26 -23 28 -11 30 -14 12 -18 -11 -3 -30 -24 -41 -46 -11 -22 -26 -44 -31 -47
-21 -13 -60 -12 -60 0 0 10 -15 12 -60 8 l-61 -6 28 30 c83 89 61 265 -53 436
-30 44 -54 81 -54 83 0 1 21 -4 47 -13 35 -12 42 -18 30 -22z m-3976 -41 c31
-43 72 -204 65 -255 -9 -55 -25 -69 -73 -61 -38 6 -38 6 -75 -56 -20 -35 -46
-81 -58 -103 -11 -22 -28 -50 -37 -62 -8 -13 -11 -23 -5 -23 6 0 14 9 17 20 3
11 10 20 16 20 5 0 35 18 66 40 65 45 103 50 134 19 23 -23 22 -58 -2 -116
-11 -27 -11 -41 -1 -79 12 -44 11 -50 -15 -102 -36 -72 -90 -125 -147 -147
-85 -32 -115 -5 -129 119 -4 27 -8 50 -10 53 -3 2 -18 -12 -33 -31 -39 -47
-79 -62 -110 -41 -13 8 -24 22 -24 31 0 30 28 80 77 138 43 50 51 67 57 113 4
30 19 87 35 127 92 230 162 390 177 407 23 25 52 21 75 -11z m4260 9 c-2 -8
-3 -26 -2 -41 1 -27 -43 -73 -60 -62 -5 3 -9 0 -9 -5 0 -6 -4 -11 -8 -11 -12
0 -62 44 -62 54 0 4 -7 15 -16 24 -12 12 -13 17 -4 20 7 3 16 -2 21 -9 6 -11
9 -10 14 3 4 9 14 14 24 11 10 -2 33 5 52 16 37 21 56 21 50 0z m-1224 -20
c-1 -11 -9 -19 -20 -19 -10 0 -16 4 -12 9 3 5 0 13 -6 17 -8 5 -8 9 2 14 18
12 38 1 36 -21z m-513 -4 c3 -9 0 -15 -9 -15 -8 0 -15 7 -15 15 0 8 4 15 9 15
5 0 11 -7 15 -15z m456 -16 c0 -18 -2 -19 -15 -5 -8 8 -15 17 -15 20 0 3 7 6
15 6 9 0 15 -9 15 -21z m-440 -19 c12 -8 12 -10 -5 -10 -17 0 -16 -3 8 -18 15
-9 27 -21 27 -27 0 -6 9 -18 20 -28 11 -9 20 -26 20 -36 0 -15 -6 -19 -27 -17
-20 3 -27 8 -25 21 2 10 -1 14 -7 10 -6 -3 -11 -2 -11 3 0 6 -14 15 -31 21
-26 9 -30 15 -25 33 3 13 6 31 6 41 0 19 26 23 50 7z m1650 -116 c0 -2 -9 0
-20 6 -11 6 -20 13 -20 16 0 2 9 0 20 -6 11 -6 20 -13 20 -16z m1439 -201 c8
-15 13 -16 33 -5 16 9 31 10 48 4 15 -6 35 -6 49 -1 19 8 22 6 17 -6 -3 -9 0
-15 8 -15 8 0 16 5 18 12 3 8 13 6 31 -8 14 -10 27 -22 27 -25 0 -3 -33 -2
-72 3 -40 4 -74 4 -76 -1 -1 -4 -16 -6 -32 -3 -18 2 -27 9 -23 15 4 7 0 8 -11
4 -10 -4 -26 -7 -37 -7 -10 0 -18 -5 -16 -12 1 -7 -12 -13 -31 -15 -60 -5
-215 -100 -273 -166 l-25 -30 0 54 1 54 -39 -3 c-22 -2 -36 0 -32 6 5 9 81 34
115 37 9 1 30 8 46 15 17 7 39 15 49 17 11 2 25 8 32 14 7 6 17 8 23 5 5 -4 7
3 3 16 -4 17 -2 20 13 15 17 -7 78 9 102 26 7 5 18 5 24 1 8 -4 9 -3 5 4 -4 7
-3 12 3 12 5 0 14 -8 20 -17z m-2215 -17 c-3 -8 -12 -17 -20 -20 -8 -3 -14
-19 -14 -41 0 -30 3 -35 18 -31 77 21 406 43 416 27 5 -8 -101 -20 -186 -20
-56 0 -161 -19 -168 -30 -8 -13 -135 -61 -161 -61 -14 0 -19 5 -16 14 4 10 1
13 -9 9 -8 -3 -13 -11 -10 -19 8 -20 -16 -33 -42 -23 -24 9 -22 29 3 29 8 0
11 7 8 20 -4 15 1 20 23 25 64 13 78 20 85 47 4 15 21 40 38 57 35 34 43 38
35 17z m1974 -10 c9 -20 8 -25 -5 -30 -11 -5 -14 -1 -10 13 3 14 1 18 -9 14
-10 -4 -12 0 -8 11 9 23 19 20 32 -8z m562 8 c0 -8 -4 -12 -10 -9 -5 3 -10 10
-10 16 0 5 5 9 10 9 6 0 10 -7 10 -16z m-1660 -17 c-14 -8 -27 -12 -30 -10 -7
6 23 23 40 23 8 0 4 -6 -10 -13z m1683 -15 c3 9 11 6 28 -11 18 -18 20 -22 7
-18 -10 4 -18 2 -18 -3 0 -6 12 -10 28 -10 23 -1 24 -2 10 -11 -13 -7 -31 -2
-71 19 -46 24 -53 32 -45 46 9 16 12 16 33 -4 17 -16 24 -18 28 -8z m-1633
-12 c19 -5 93 -15 164 -20 119 -10 132 -9 143 6 23 32 25 6 3 -68 -28 -96 -30
-102 -34 -97 -3 2 2 29 10 59 22 84 26 80 -84 80 -65 0 -123 7 -173 20 l-74
19 -23 -27 c-13 -15 -20 -20 -16 -12 9 20 36 50 43 50 3 0 22 -4 41 -10z
m-415 -20 c13 -5 14 -9 5 -9 -8 0 -24 4 -35 9 -13 5 -14 9 -5 9 8 0 24 -4 35
-9z m772 -12 c-3 -8 -6 -5 -6 6 -1 11 2 17 5 13 3 -3 4 -12 1 -19z m-1668 -63
c28 -2 54 1 57 6 3 5 13 -1 23 -13 l18 -22 27 27 c30 30 41 34 32 12 -3 -8 2
-18 10 -23 14 -8 14 -10 0 -21 -12 -10 -27 -10 -64 -2 -26 5 -79 9 -117 8
l-70 -2 4 45 4 45 12 -29 c11 -25 17 -29 64 -31z m1506 35 c3 -5 -3 -10 -14
-10 -12 0 -21 5 -21 10 0 6 6 10 14 10 8 0 18 -4 21 -10z m-1615 -58 c0 -10
-7 -27 -15 -38 -13 -17 -14 -17 -15 -1 0 9 5 17 11 17 6 0 8 9 4 20 -4 11 -2
20 4 20 6 0 11 -8 11 -18z m417 -48 c9 -8 10 -15 3 -19 -5 -3 -10 -2 -10 4 0
5 -13 12 -30 16 -16 4 -30 11 -30 16 0 12 51 -1 67 -17z m2411 11 c70 -14 186
-54 180 -61 -2 -2 -33 5 -69 16 -64 20 -149 24 -149 8 0 -4 4 -8 9 -8 5 0 12
-79 16 -175 5 -112 11 -175 18 -175 6 0 7 -3 3 -7 -11 -12 -120 -10 -128 1 -4
6 -10 7 -14 3 -11 -10 28 -37 46 -32 8 3 38 -2 65 -9 28 -8 44 -15 36 -15 -9
-1 -11 -9 -7 -28 4 -18 3 -23 -2 -14 -6 8 -17 11 -31 6 -13 -4 -21 -2 -21 5 0
11 -57 5 -70 -7 -9 -8 25 -23 42 -17 9 2 19 1 22 -5 3 -5 15 -7 26 -4 15 4 20
0 20 -14 0 -10 5 -24 11 -30 7 -7 6 -12 -5 -16 -11 -4 -16 -1 -16 10 0 13 -3
13 -15 3 -11 -9 -13 -16 -5 -24 16 -16 12 -44 -7 -55 -10 -5 -14 -13 -10 -17
4 -4 16 2 28 14 11 13 24 20 30 17 5 -4 9 -1 9 4 0 6 16 11 35 11 39 0 43 6
18 26 -12 9 -13 13 -5 14 9 0 10 5 3 19 -15 27 1 36 17 9 7 -13 11 -15 8 -5
-3 9 -1 17 4 17 6 0 10 7 10 15 0 8 5 15 10 15 6 0 10 11 10 25 0 19 -4 23
-17 19 -14 -4 -13 -2 2 7 26 16 35 31 28 43 -4 5 1 7 10 3 18 -7 33 8 18 18
-6 3 -8 12 -4 20 3 9 -1 23 -8 33 -13 16 -12 16 6 0 18 -15 21 -15 35 0 13 14
12 15 -3 9 -16 -6 -15 -2 4 33 15 27 25 36 30 28 6 -9 10 -7 15 6 5 14 9 15
15 4 7 -10 9 -9 9 5 0 9 5 17 10 17 6 0 9 3 9 8 -3 19 2 33 10 27 6 -3 14 3
20 12 8 14 4 25 -17 47 l-27 30 33 -27 c82 -66 123 -146 130 -253 4 -70 3 -73
-51 -185 -30 -63 -70 -165 -88 -228 -40 -139 -72 -180 -166 -207 -114 -33
-437 9 -578 75 -63 29 -67 33 -98 98 -35 74 -34 69 -26 353 3 88 0 115 -19
168 l-22 62 21 42 c48 94 177 191 286 217 61 14 235 12 311 -4z m-2883 -33
c-15 -16 -16 -15 -4 12 7 15 15 23 17 16 3 -7 -3 -19 -13 -28z m2363 -8 c-7
-16 -28 -45 -47 -64 -32 -33 -32 -33 -14 -5 36 54 36 58 4 34 -17 -12 -31 -26
-31 -31 0 -4 -6 -8 -13 -8 -7 0 -29 -14 -50 -31 -21 -17 -40 -29 -43 -26 -3 3
38 37 91 77 52 40 98 77 101 82 13 20 14 -1 2 -28z m-2334 -158 c134 -45 227
-120 268 -215 26 -61 35 -136 18 -156 -7 -8 -9 -15 -5 -15 4 0 -11 -20 -32
-44 -22 -25 -45 -62 -51 -84 -15 -49 -15 -142 -2 -213 24 -124 11 -183 -50
-214 -90 -47 -346 -64 -469 -32 -67 18 -114 46 -131 77 -6 10 -24 112 -41 227
-34 231 -34 301 1 439 37 145 87 220 166 250 62 23 230 13 328 -20z m2116 -1
c-7 -9 -15 -13 -17 -11 -7 7 7 26 19 26 6 0 6 -6 -2 -15z m-50 -40 c-7 -9 -15
-13 -19 -10 -3 3 1 10 9 15 21 14 24 12 10 -5z m15 -27 c-76 -84 -100 -108
-109 -108 -6 0 21 32 59 70 72 73 100 94 50 38z m-5229 -53 c17 -18 45 -40 62
-49 17 -9 36 -25 41 -35 14 -25 -4 -87 -32 -106 -28 -20 -110 -19 -150 1 -52
27 -167 137 -167 160 0 30 19 44 61 44 20 0 52 7 70 15 45 19 77 11 115 -30z
m5234 -65 c0 -5 -5 -10 -11 -10 -5 0 -7 5 -4 10 3 6 8 10 11 10 2 0 4 -4 4
-10z m-76 -16 c23 -9 20 -24 -4 -24 -11 0 -20 7 -20 15 0 17 2 18 24 9z m889
-64 c-3 -12 -8 -19 -11 -16 -5 6 5 36 12 36 2 0 2 -9 -1 -20z m57 -24 c0 -3
-4 -8 -10 -11 -5 -3 -10 -1 -10 4 0 6 5 11 10 11 6 0 10 -2 10 -4z m-6013 -62
c-9 -9 -28 6 -21 18 4 6 10 6 17 -1 6 -6 8 -13 4 -17z m5940 20 c-3 -3 -12 -4
-19 -1 -8 3 -5 6 6 6 11 1 17 -2 13 -5z m493 -35 c0 -6 -4 -7 -10 -4 -5 3 -10
11 -10 16 0 6 5 7 10 4 6 -3 10 -11 10 -16z m-5779 -10 c6 -12 9 -35 6 -53 -3
-17 -13 -80 -22 -141 -9 -60 -28 -137 -41 -171 -13 -33 -24 -66 -24 -72 0 -22
-31 -27 -122 -20 -94 7 -189 35 -217 63 -19 19 -19 21 104 175 118 148 221
240 270 240 25 0 37 -6 46 -21z m4589 -444 c-6 -8 -9 -19 -5 -25 3 -5 0 -10
-8 -10 -12 0 -13 7 -4 41 8 33 12 38 19 25 6 -11 6 -22 -2 -31z m-10 -50 c0
-4 -7 -19 -15 -36 -9 -16 -17 -52 -18 -78 -1 -27 -5 -45 -8 -39 -4 6 -9 6 -11
2 -3 -5 -3 -2 -1 6 3 8 9 38 14 65 13 68 19 85 30 85 5 0 9 -2 9 -5z m27 -27
c-3 -8 -6 -5 -6 6 -1 11 2 17 5 13 3 -3 4 -12 1 -19z m-4997 2 c175 -20 272
-42 298 -67 21 -21 23 -30 17 -71 -4 -26 -13 -90 -21 -142 -43 -304 -69 -448
-87 -487 -12 -28 -47 -30 -69 -5 -8 9 -26 42 -40 72 -14 30 -58 111 -97 180
-92 160 -221 425 -221 454 0 43 43 75 100 76 19 0 73 -4 120 -10z m4977 -62
c-3 -8 -6 -5 -6 6 -1 11 2 17 5 13 3 -3 4 -12 1 -19z m225 -132 c4 3 8 0 8 -5
0 -6 5 -11 11 -11 7 0 22 -11 34 -24 12 -13 32 -29 43 -35 33 -18 26 -27 -15
-23 -43 5 -73 27 -73 53 0 13 -6 17 -20 14 -15 -3 -27 6 -44 33 -31 48 -24 58
16 22 17 -16 35 -27 40 -24z m-340 -68 c-12 -35 -23 -74 -25 -88 l-4 -25 -2
26 c-1 31 38 164 46 156 3 -3 -4 -34 -15 -69z m69 35 c-12 -20 -14 -14 -5 12
4 9 9 14 11 11 3 -2 0 -13 -6 -23z m-5271 2 c18 -21 5 -45 -25 -45 -27 0 -41
20 -31 45 7 19 40 19 56 0z m5556 -70 c10 -16 18 -32 19 -35 0 -3 3 -4 7 -3 4
2 4 -5 1 -14 -5 -12 -2 -15 10 -10 15 5 16 3 7 -13 -7 -12 -7 -21 0 -25 16
-10 11 -28 -6 -21 -12 4 -15 2 -10 -9 4 -13 2 -14 -14 -5 -10 5 -22 15 -25 21
-5 7 -14 4 -26 -7 -11 -10 -19 -12 -19 -6 0 7 4 12 9 12 12 0 5 103 -8 128
-17 33 -13 41 13 29 14 -7 33 -25 42 -42z m204 35 c0 -5 -5 -10 -11 -10 -5 0
-7 5 -4 10 3 6 8 10 11 10 2 0 4 -4 4 -10z m-2712 -137 c15 -4 46 -7 69 -7 24
-1 43 -5 43 -10 0 -5 -29 -6 -65 -3 -62 4 -65 4 -59 -15 4 -15 3 -18 -6 -13
-8 5 -11 3 -9 -4 3 -7 7 -11 10 -9 10 5 59 -59 59 -77 0 -10 7 -23 15 -29 8
-6 16 -22 17 -36 2 -14 10 -32 20 -40 19 -18 36 -66 19 -56 -6 4 -11 14 -11
22 0 8 -5 14 -10 14 -7 0 -6 -8 2 -22 7 -13 13 -32 14 -43 2 -11 5 -38 9 -60
3 -22 6 -48 6 -59 0 -10 11 -30 24 -44 13 -14 21 -30 18 -36 -4 -5 -10 0 -14
12 -5 12 -13 22 -18 22 -9 0 4 -64 18 -85 3 -5 6 -19 6 -30 0 -11 5 -19 10
-18 6 1 11 -10 11 -23 2 -32 13 -42 24 -24 6 9 10 10 10 3 0 -6 -5 -15 -11
-19 -6 -3 -8 -16 -5 -27 3 -12 1 -26 -4 -31 -4 -6 -10 -24 -12 -41 -2 -18 -16
35 -36 134 -18 90 -43 196 -56 235 -13 39 -36 110 -50 158 -14 48 -51 136 -80
195 -30 59 -57 119 -61 133 -6 22 -2 19 34 -17 23 -24 54 -46 69 -50z m160
-17 c-7 -7 -19 -11 -25 -9 -18 7 -5 23 18 23 16 0 18 -2 7 -14z m-3007 -17
c27 -27 169 -321 176 -364 3 -20 -4 -53 -22 -95 -35 -84 -44 -184 -21 -228 35
-67 89 -77 149 -26 16 13 35 24 43 24 23 0 41 -50 54 -153 17 -135 19 -133
-162 -142 -76 -4 -147 -4 -158 0 -37 12 -40 35 -19 161 41 251 18 500 -66 689
-35 79 -36 86 -24 122 12 39 21 41 50 12z m5067 -29 c-3 -16 -1 -30 4 -30 4 0
8 -4 8 -8 0 -5 -6 -9 -14 -9 -7 0 -12 9 -11 21 1 12 3 29 4 39 0 9 4 17 7 17
4 0 4 -13 2 -30z m269 11 c0 -11 -5 -18 -9 -15 -4 3 -5 11 -1 19 7 21 12 19
10 -4z m-5758 -52 c8 -22 7 -57 -4 -135 -17 -116 -44 -206 -82 -271 -48 -82
-7 -127 117 -130 41 -1 91 -4 110 -5 31 -3 37 1 57 37 12 22 33 81 48 130 28
99 44 125 63 102 19 -23 32 -112 32 -221 0 -155 -51 -327 -105 -356 -32 -17
-195 -26 -290 -16 -16 2 -38 -1 -47 -6 -46 -23 -94 55 -124 202 -26 130 -8
342 40 478 40 111 118 222 156 222 11 0 22 -12 29 -31z m194 -4 c35 -34 37
-40 37 -99 0 -118 -62 -296 -108 -310 -28 -9 -97 -10 -110 -2 -7 4 -12 21 -12
37 0 38 34 173 60 240 11 27 20 65 20 84 0 92 48 113 113 50z m5214 -55 c-4
-16 -15 -49 -26 -73 -11 -23 -23 -55 -26 -70 -7 -27 -25 -47 -25 -28 0 5 16
46 35 90 19 43 35 86 35 95 0 9 3 16 6 16 4 0 4 -13 1 -30z m-4118 -17 c52
-104 85 -282 57 -318 -14 -20 -16 -19 -55 20 -56 53 -81 124 -81 225 0 95 5
110 36 110 17 0 29 -10 43 -37z m1166 -41 c-3 -3 -11 0 -18 7 -9 10 -8 11 6 5
10 -3 15 -9 12 -12z m2975 -42 c0 -3 -9 -6 -20 -7 -17 -1 -18 1 -8 17 9 14 14
16 20 7 4 -7 8 -14 8 -17z m-4480 -26 c18 -47 24 -163 10 -189 -14 -27 -39
-32 -58 -13 -15 15 -16 181 -2 209 15 27 39 24 50 -7z m4480 -17 c0 -12 -5
-29 -11 -37 -8 -11 -9 -7 -5 18 3 17 3 32 1 32 -3 0 -11 -15 -19 -32 l-13 -33
1 33 c2 50 46 68 46 19z m-2020 -40 c0 -5 -4 -5 -10 -2 -5 3 -10 14 -10 23 0
15 2 15 10 2 5 -8 10 -19 10 -23z m1960 3 c-6 -12 -14 -19 -17 -17 -2 3 1 15
7 27 6 12 14 19 17 17 2 -3 -1 -15 -7 -27z m-56 -97 c-24 -63 -29 -39 -7 34
12 41 18 51 21 35 2 -12 -5 -43 -14 -69z m55 46 c-15 -9 -32 -2 -24 11 3 5 13
6 21 3 12 -4 13 -8 3 -14z m624 -82 c-3 -5 -9 -3 -14 4 -4 7 -5 17 -2 22 3 5
9 3 14 -4 4 -7 5 -17 2 -22z m122 2 c9 -17 15 -33 13 -35 -3 -2 -12 12 -21 31
-21 43 -13 47 8 4z m-150 -9 c3 -5 1 -10 -4 -10 -6 0 -11 5 -11 10 0 6 2 10 4
10 3 0 8 -4 11 -10z m110 -30 c3 -5 -1 -10 -10 -10 -9 0 -13 5 -10 10 3 6 8
10 10 10 2 0 7 -4 10 -10z m-4713 -85 c9 -20 9 -51 -1 -133 -13 -113 -35 -173
-76 -212 -21 -20 -25 -21 -31 -7 -3 9 -1 31 5 49 9 26 8 38 -10 72 -11 23 -26
46 -33 51 -18 14 -46 70 -46 93 0 28 77 92 125 105 42 10 56 6 67 -18z m5168
-32 c0 -5 -15 -9 -33 -10 -26 -1 -28 0 -12 7 26 11 45 12 45 3z m24 -202 c23
-20 46 -65 46 -88 -1 -11 -7 -6 -18 16 -9 19 -29 43 -44 54 -23 17 -32 18 -67
9 -49 -12 -54 -1 -8 21 35 18 61 14 91 -12z m-486 -74 c24 -11 46 -25 49 -30
9 -15 -6 -20 -22 -7 -8 7 -15 9 -15 6 0 -4 -15 4 -33 18 -19 15 -41 26 -49 26
-9 0 -18 7 -21 15 -7 16 10 11 91 -28z m-2537 -66 c40 -51 69 -103 69 -123 -1
-7 -11 5 -23 28 -12 22 -36 60 -53 85 -17 24 -36 55 -43 69 -10 21 -9 22 1 6
7 -10 29 -39 49 -65z m2725 18 c4 -8 1 -8 -14 0 -12 6 -24 16 -28 22 -4 8 -1
8 14 0 12 -6 24 -16 28 -22z m149 -132 c6 -5 1 -5 -10 1 -11 6 -38 30 -60 53
l-40 43 50 -43 c28 -24 55 -48 60 -54z m-263 45 c9 -4 26 -19 38 -34 l21 -27
-28 14 c-56 29 -123 8 -123 -39 0 -29 35 -75 67 -87 50 -19 107 38 89 88 -5
15 -4 15 9 -1 21 -27 19 -69 -4 -90 -11 -10 -38 -20 -61 -23 -34 -5 -45 -2
-66 18 -50 46 -67 106 -43 150 16 32 64 46 101 31z m-32 -66 c0 -3 -4 -8 -10
-11 -5 -3 -10 -1 -10 4 0 6 5 11 10 11 6 0 10 -2 10 -4z m5 -35 c3 -5 1 -12
-5 -16 -5 -3 -10 1 -10 9 0 18 6 21 15 7z"/>
<path d="M7790 8340 c0 -5 7 -10 16 -10 8 0 12 5 9 10 -3 6 -10 10 -16 10 -5
0 -9 -4 -9 -10z"/>
<path d="M1420 7369 c-7 -11 -20 -29 -31 -40 -19 -19 -24 -39 -20 -94 2 -41
24 -115 33 -115 4 0 7 39 6 88 -1 70 3 95 20 131 25 51 25 51 12 51 -5 0 -14
-9 -20 -21z"/>
<path d="M1320 7176 c0 -25 5 -35 20 -39 24 -6 24 -8 5 37 -19 45 -25 45 -25
2z"/>
<path d="M5270 6565 c-16 -19 -11 -19 31 0 33 14 33 14 8 15 -15 0 -32 -7 -39
-15z"/>
<path d="M5348 6573 c7 -3 16 -2 19 1 4 3 -2 6 -13 5 -11 0 -14 -3 -6 -6z"/>
<path d="M5256 6524 c-5 -14 -4 -15 9 -4 17 14 19 20 6 20 -5 0 -12 -7 -15
-16z"/>
<path d="M940 6376 c0 -7 -7 -19 -15 -26 -16 -13 -21 -65 -6 -56 5 3 7 16 4
29 -3 12 -2 19 2 15 9 -9 34 20 35 40 0 6 -4 12 -10 12 -5 0 -10 -6 -10 -14z"/>
<path d="M6838 6573 c7 -3 16 -2 19 1 4 3 -2 6 -13 5 -11 0 -14 -3 -6 -6z"/>
<path d="M6448 6463 c-10 -2 -18 -9 -18 -14 0 -15 36 -10 50 6 13 16 5 18 -32
8z"/>
<path d="M6450 6415 c-7 -9 -8 -15 -2 -15 5 0 12 7 16 15 3 8 4 15 2 15 -2 0
-9 -7 -16 -15z"/>
<path d="M6420 6159 c0 -5 5 -7 10 -4 6 3 10 8 10 11 0 2 -4 4 -10 4 -5 0 -10
-5 -10 -11z"/>
<path d="M7274 5957 c-8 -21 2 -35 16 -21 5 5 6 15 0 24 -8 12 -10 12 -16 -3z"/>
<path d="M6770 5910 c0 -5 5 -10 10 -10 6 0 10 5 10 10 0 6 -4 10 -10 10 -5 0
-10 -4 -10 -10z"/>
<path d="M6776 5814 c-5 -13 -2 -15 14 -11 11 3 23 1 26 -4 9 -15 34 -10 34 7
0 11 -6 14 -20 9 -11 -4 -20 -2 -20 4 0 17 -27 13 -34 -5z"/>
<path d="M6782 5748 c-15 -15 -15 -28 -1 -28 5 0 7 5 4 10 -3 6 3 10 14 10 12
0 21 5 21 10 0 14 -23 13 -38 -2z"/>
<path d="M6833 5745 c-9 -25 4 -29 17 -6 7 15 7 21 0 21 -6 0 -13 -7 -17 -15z"/>
<path d="M6921 5723 c-1 -7 -7 -10 -14 -7 -16 6 -41 -21 -33 -35 4 -6 18 -6
38 0 37 10 60 29 36 29 -9 0 -19 6 -21 13 -4 9 -6 9 -6 0z"/>
<path d="M6816 5707 c3 -10 9 -15 12 -12 3 3 0 11 -7 18 -10 9 -11 8 -5 -6z"/>
<path d="M7085 5471 c-7 -12 12 -24 25 -16 11 7 4 25 -10 25 -5 0 -11 -4 -15
-9z"/>
<path d="M3830 6170 c0 -5 5 -10 11 -10 5 0 7 5 4 10 -3 6 -8 10 -11 10 -2 0
-4 -4 -4 -10z"/>
<path d="M4193 5925 c-3 -9 -3 -18 0 -22 10 -10 37 6 37 22 0 20 -29 20 -37 0z"/>
<path d="M4220 5891 c0 -6 5 -13 10 -16 6 -3 10 1 10 9 0 9 -4 16 -10 16 -5 0
-10 -4 -10 -9z"/>
<path d="M4270 5759 l-35 -30 33 18 c36 19 61 43 45 43 -5 0 -24 -14 -43 -31z"/>
<path d="M4132 5278 c7 -20 48 -23 48 -4 0 11 -9 16 -26 16 -16 0 -24 -5 -22
-12z"/>
<path d="M6475 4890 c-3 -5 1 -10 10 -10 9 0 13 5 10 10 -3 6 -8 10 -10 10 -2
0 -7 -4 -10 -10z"/>
<path d="M3973 11123 c-21 -8 -15 -38 12 -63 32 -30 32 -64 -1 -142 -21 -49
-24 -66 -15 -85 16 -36 45 -28 101 29 48 49 54 52 101 51 27 0 49 3 49 8 0 5
-7 5 -17 2 -11 -4 -14 -3 -9 5 4 7 3 12 -2 12 -12 0 -108 98 -132 135 -11 17
-20 26 -20 20 0 -5 -7 1 -16 13 -15 22 -27 25 -51 15z"/>
<path d="M4677 10892 c-21 -23 -23 -125 -4 -165 12 -27 40 -36 52 -17 3 6 20
10 36 10 39 0 46 21 21 64 -11 18 -23 49 -27 67 -13 60 -46 77 -78 41z"/>
<path d="M3801 10802 c-8 -15 -8 -23 0 -28 17 -10 33 11 21 32 -9 16 -10 16
-21 -4z"/>
<path d="M4605 10224 c-3 -21 -11 -48 -17 -58 -9 -17 -7 -18 14 -13 12 4 31 7
40 7 14 0 16 6 12 33 -4 17 -15 41 -25 51 -17 18 -18 18 -24 -20z"/>
<path d="M4233 10048 c-25 -33 -25 -40 1 -23 14 9 23 21 20 26 -7 12 -10 11
-21 -3z"/>
<path d="M4620 10033 c0 -11 90 -27 98 -18 10 10 -8 17 -53 22 -26 4 -45 2
-45 -4z"/>
<path d="M4374 10005 c-18 -15 -18 -15 10 -13 16 2 31 9 34 16 5 17 -20 15
-44 -3z"/>
<path d="M4627 9913 c-15 -14 -6 -43 18 -59 29 -19 75 -12 75 11 0 35 -70 72
-93 48z"/>
<path d="M4152 9823 c-31 -12 -36 -83 -6 -83 15 0 28 21 38 63 6 27 -2 32 -32
20z"/>
<path d="M4621 9486 c-20 -23 -9 -67 22 -90 26 -19 30 -19 55 -5 38 21 51 63
27 89 -22 24 -86 27 -104 6z"/>
<path d="M4162 9388 c-19 -19 -14 -47 14 -74 24 -25 26 -25 45 -8 22 20 24 51
5 77 -15 20 -47 22 -64 5z"/>
<path d="M510 7126 c0 -8 4 -17 9 -21 6 -3 9 4 8 15 -1 23 -17 28 -17 6z"/>
<path d="M258 6042 c-1 -5 -29 -29 -60 -55 -61 -49 -124 -72 -170 -63 -26 5
-28 3 -28 -24 0 -23 8 -35 37 -55 21 -14 45 -25 55 -25 23 0 143 90 157 118 6
13 11 32 11 43 0 11 7 31 16 44 14 22 15 25 1 25 -8 0 -17 -4 -19 -8z"/>
<path d="M6389 4475 c-36 -23 -55 -52 -44 -63 8 -8 93 16 116 32 19 13 19 13
0 34 -23 28 -28 27 -72 -3z"/>
<path d="M6190 4413 c-41 -20 -131 -57 -200 -84 -69 -26 -197 -75 -285 -109
-513 -199 -618 -239 -795 -305 -206 -77 -286 -107 -820 -309 -634 -241 -889
-334 -937 -341 -15 -3 -47 -8 -70 -11 -24 -4 -43 -11 -43 -15 0 -5 -5 -8 -11
-7 -6 2 -26 -25 -43 -59 -18 -34 -49 -80 -69 -102 l-36 -40 16 -48 c9 -26 22
-54 30 -61 20 -20 9 -70 -23 -104 -55 -58 -164 -87 -198 -52 -49 49 -148 226
-140 249 8 19 20 19 -147 -10 -81 -14 -161 -34 -187 -47 -62 -30 -118 -88
-131 -133 -10 -39 -5 -126 11 -160 9 -19 9 -19 -6 -1 -14 18 -27 18 -198 12
-101 -3 -275 -8 -388 -11 -113 -3 -281 -7 -375 -10 -93 -3 -312 -8 -485 -11
-173 -3 -355 -7 -405 -9 -50 -2 -127 -4 -172 -4 l-83 -1 0 -35 0 -35 128 0
c182 0 1038 18 1157 24 55 3 225 8 379 12 153 3 286 8 295 9 9 2 44 4 78 4 39
1 67 6 76 15 13 13 21 3 68 -77 68 -116 198 -249 329 -337 97 -65 134 -93 90
-69 -26 15 -186 16 -415 5 -169 -9 -552 -25 -730 -31 -88 -2 -232 -7 -320 -10
-223 -8 -574 -14 -877 -15 l-258 0 0 -169 c0 -189 3 -206 30 -191 16 8 239 26
315 24 11 0 23 5 27 10 4 6 12 5 21 -3 10 -8 17 -9 22 -1 3 5 39 10 79 10 40
0 76 3 80 7 4 4 38 6 76 4 37 -1 77 2 88 8 14 7 23 8 27 1 4 -6 10 -8 15 -5
10 6 77 13 185 20 44 2 116 7 160 10 98 7 272 16 340 18 28 1 55 5 60 9 6 3
107 9 224 13 118 3 217 8 221 10 3 2 49 5 101 6 51 1 98 4 104 7 5 3 18 7 30
8 39 3 270 16 285 16 8 -1 44 3 80 8 130 19 476 29 535 16 18 -3 12 1 -13 10
-24 9 -42 17 -40 19 2 2 41 -5 88 -15 120 -25 190 -32 190 -18 0 7 19 40 41
75 l41 63 -35 43 c-19 23 -86 97 -150 164 -80 85 -117 132 -122 154 -8 33
-156 261 -203 312 -19 20 -22 27 -10 27 17 0 68 -44 68 -60 0 -5 8 -10 18 -10
16 1 16 1 0 11 -24 13 -23 29 1 29 10 0 21 7 25 15 9 23 57 18 101 -11 182
-122 327 -229 312 -232 -9 -2 -14 -8 -11 -13 3 -6 -15 6 -40 25 -26 20 -83 53
-126 75 -44 22 -88 45 -100 51 -11 5 -29 15 -40 20 -15 8 -28 6 -50 -5 -33
-17 -37 -32 -16 -60 12 -17 17 -18 39 -6 14 7 31 10 37 6 8 -5 1 -12 -21 -22
-44 -19 -44 -18 -20 -51 12 -17 21 -35 21 -41 0 -17 6 -14 40 20 27 27 35 30
68 24 50 -9 64 -25 16 -18 -53 7 -94 -24 -94 -72 0 -28 12 -45 74 -108 61 -62
78 -74 99 -70 19 4 28 -1 37 -17 8 -15 18 -20 31 -17 15 4 18 2 10 -7 -16 -19
4 -38 44 -43 l38 -4 -26 33 c-82 100 -81 99 -67 108 14 9 60 -30 60 -52 0 -6
10 -8 25 -4 28 7 30 4 14 -25 -8 -16 -7 -25 3 -37 8 -9 23 -35 33 -57 11 -22
25 -47 32 -55 12 -15 7 -64 -6 -56 -3 2 -15 -2 -26 -10 -17 -13 -16 -14 18
-14 47 0 126 40 160 80 33 39 78 56 106 40 12 -6 21 -18 21 -26 0 -32 -34 -87
-77 -122 l-44 -37 6 -55 c4 -30 10 -59 14 -65 4 -5 7 -17 6 -25 -1 -8 2 -22 6
-31 12 -24 -9 -46 -73 -77 l-57 -27 477 2 c262 2 716 7 1007 13 1277 26 1507
30 2145 40 371 5 929 14 1240 19 311 6 729 13 930 16 386 6 663 13 770 20 36
2 214 7 395 11 182 4 337 8 345 10 8 1 81 3 163 3 l147 1 0 81 0 82 -147 -7
c-128 -5 -421 -23 -698 -41 -302 -19 -532 -31 -1015 -50 -74 -3 -236 -10 -360
-15 -335 -14 -873 -27 -1675 -40 -313 -5 -637 -12 -720 -15 -160 -5 -453 -11
-945 -20 -498 -9 -1611 -46 -1822 -61 -43 -3 -78 -3 -78 -1 0 2 26 22 58 45
91 64 131 135 112 200 l-9 32 52 1 c82 0 255 8 337 14 41 3 122 7 180 10 58 3
188 12 290 20 195 15 333 22 645 30 105 3 231 10 280 14 50 5 93 7 97 4 4 -2
25 0 45 6 21 5 90 12 153 16 63 3 135 8 160 10 25 1 51 -2 59 -9 10 -7 13 -7
8 0 -4 8 37 13 141 18 226 10 696 38 701 42 2 2 2 6 -1 9 -14 14 -2235 4
-2343 -11 -16 -2 -199 -6 -405 -9 -353 -5 -373 -4 -340 11 64 30 271 105 635
229 198 68 464 159 591 203 l230 79 285 3 c156 1 298 4 314 5 17 1 181 6 365
10 295 6 495 12 510 14 3 1 0 5 -7 9 -13 8 -268 8 -718 -2 -473 -10 -588 -15
-690 -32 l-30 -5 25 14 c14 8 138 54 275 102 336 117 426 149 584 206 73 27
137 47 141 44 4 -2 38 2 76 10 38 8 141 19 229 25 88 6 165 11 172 12 13 2 7
20 -19 63 -33 54 -24 95 38 172 19 23 34 44 34 48 0 15 -151 181 -188 207 -21
14 -27 14 -75 -4 l-52 -20 -21 27 c-12 15 -19 35 -17 45 3 10 0 21 -6 24 -22
14 -12 33 15 28 l27 -5 -24 32 c-12 17 -28 31 -34 31 -6 0 -19 16 -28 35 l-17
35 -52 -26 c-29 -15 -56 -31 -59 -37 -4 -5 -11 -7 -17 -3 -6 3 -13 2 -17 -4
-3 -5 -1 -10 4 -10 6 0 11 -11 11 -25 0 -14 -4 -25 -10 -25 -5 0 -10 7 -10 16
0 8 -4 13 -9 10 -5 -3 -7 -15 -4 -26 4 -14 0 -20 -11 -20 -11 0 -15 5 -11 13
4 6 0 4 -8 -5 -13 -16 -15 -16 -35 5 -13 12 -22 16 -22 9 0 -10 -5 -10 -21 -2
-20 11 -20 10 -5 -18 8 -16 43 -66 77 -113 34 -46 55 -78 46 -70 -9 7 -38 43
-64 80 -26 36 -100 136 -165 221 l-119 155 63 23 c35 13 117 44 183 70 l120
47 -44 6 c-30 4 -49 13 -62 30 -38 50 -119 218 -119 246 0 16 11 44 25 63 23
31 29 41 23 39 -2 0 -37 -17 -78 -36z m-2455 -1493 c3 -6 -1 -7 -9 -4 -18 7
-21 14 -7 14 6 0 13 -4 16 -10z m595 -160 c0 -5 -5 -10 -11 -10 -5 0 -7 5 -4
10 3 6 8 10 11 10 2 0 4 -4 4 -10z m-678 -17 c5 -2 13 -13 18 -23 9 -17 8 -19
-7 -13 -13 4 -10 -3 10 -24 34 -36 37 -104 7 -143 -11 -14 -20 -20 -19 -15 0
6 6 19 14 29 8 11 15 37 15 57 0 64 -68 98 -135 67 -32 -14 -43 -4 -21 21 17
18 17 19 -1 24 -14 3 -10 8 17 20 31 15 78 15 102 0z m-552 -112 c0 -5 -8 -11
-17 -15 -10 -3 -24 -9 -30 -12 -8 -3 -13 2 -13 13 0 14 8 19 30 21 17 1 30 -2
30 -7z m165 -83 c7 -7 -4 -8 -36 -4 -34 5 -57 2 -93 -13 l-46 -20 10 20 c6 11
21 24 33 29 26 12 118 3 132 -12z m-77 -70 c-3 -7 9 -25 24 -40 24 -23 26 -29
13 -34 -8 -4 -25 -4 -38 -1 l-22 6 24 -20 c37 -31 73 -22 99 26 10 17 11 18
12 3 0 -29 -37 -58 -72 -58 -37 1 -59 14 -76 47 -16 29 -15 49 4 67 18 19 37
21 32 4z m280 -90 c39 -97 60 -200 38 -192 -6 2 -12 12 -13 22 -4 37 -13 80
-23 106 -5 15 -8 31 -5 36 3 5 2 10 -3 12 -11 5 -42 88 -32 88 4 0 22 -33 38
-72z m-51 -50 c-3 -8 -6 -5 -6 6 -1 11 2 17 5 13 3 -3 4 -12 1 -19z m33 -28
c9 -16 8 -20 -5 -20 -8 0 -15 9 -15 20 0 11 2 20 5 20 2 0 9 -9 15 -20z m87
-172 c-3 -7 -5 -2 -5 12 0 14 2 19 5 13 2 -7 2 -19 0 -25z m-647 -128 c8 -5
11 -10 5 -10 -5 0 -17 5 -25 10 -8 5 -10 10 -5 10 6 0 17 -5 25 -10z m131 -48
c-7 -2 -18 1 -23 6 -8 8 -4 9 13 5 13 -4 18 -8 10 -11z m1752 -269 c-7 -2 -21
-2 -30 0 -10 3 -4 5 12 5 17 0 24 -2 18 -5z m-195 -10 c-49 -2 -127 -2 -175 0
-49 1 -9 3 87 3 96 0 136 -2 88 -3z"/>
<path d="M6655 4330 c3 -5 8 -10 11 -10 2 0 4 5 4 10 0 6 -5 10 -11 10 -5 0
-7 -4 -4 -10z"/>
<path d="M6661 4296 c-7 -8 -8 -17 -3 -20 6 -3 12 3 15 14 6 24 4 25 -12 6z"/>
<path d="M6734 4301 c4 -5 1 -12 -4 -14 -6 -3 -5 -4 2 -3 15 3 23 26 8 26 -6
0 -9 -4 -6 -9z"/>
<path d="M6185 3851 c-3 -5 -1 -12 5 -16 12 -7 30 2 30 16 0 12 -27 12 -35 0z"/>
<path d="M6280 3822 c0 -5 7 -15 15 -22 8 -7 15 -8 15 -2 0 5 -7 15 -15 22 -8
7 -15 8 -15 2z"/>
<path d="M6613 3809 c-14 -14 -4 -49 13 -49 8 0 14 10 14 24 0 29 -12 40 -27
25z"/>
<path d="M6220 3791 c0 -13 26 -32 33 -24 8 7 -11 33 -24 33 -5 0 -9 -4 -9 -9z"/>
<path d="M6660 3601 c0 -16 22 -24 30 -11 5 9 9 9 14 1 10 -16 59 -14 54 2 -5
14 -98 23 -98 8z"/>
<path d="M6850 3571 c0 -5 16 -22 35 -38 20 -15 47 -38 62 -51 28 -26 45 -22
21 5 -26 31 -31 43 -14 37 9 -3 16 -10 16 -16 0 -5 5 -6 10 -3 6 3 10 0 10 -8
0 -8 7 -21 16 -28 15 -12 16 -11 9 11 -4 14 -13 30 -21 36 -8 6 -14 17 -14 24
0 7 -7 10 -15 6 -8 -3 -14 -2 -14 2 3 19 -2 23 -15 13 -11 -10 -21 -9 -45 3
-35 18 -41 19 -41 7z"/>
<path d="M7040 3320 c0 -6 7 -13 15 -17 24 -9 27 1 5 15 -13 8 -20 8 -20 2z"/>
<path d="M2770 3131 c0 -6 5 -13 10 -16 6 -3 10 1 10 9 0 9 -4 16 -10 16 -5 0
-10 -4 -10 -9z"/>
<path d="M2743 3110 c-3 -11 -9 -17 -14 -14 -5 3 -9 1 -9 -3 0 -5 -9 -9 -20
-10 -13 -1 -18 2 -14 9 4 7 2 8 -4 4 -19 -11 -14 -26 8 -26 34 0 80 28 74 45
-8 20 -15 19 -21 -5z"/>
<path d="M7428 2735 c-3 -3 -35 -6 -72 -6 -36 -1 -69 -6 -72 -11 -4 -6 32 -8
95 -7 96 3 121 9 85 23 -19 7 -29 8 -36 1z"/>
<path d="M7616 2731 c-8 -12 86 -12 104 -1 10 7 -3 10 -42 10 -31 0 -59 -4
-62 -9z"/>
<path d="M7740 2732 c0 -5 7 -9 15 -9 8 0 15 4 15 9 0 4 -7 8 -15 8 -8 0 -15
-4 -15 -8z"/>
<path d="M7838 2733 c7 -3 16 -2 19 1 4 3 -2 6 -13 5 -11 0 -14 -3 -6 -6z"/>
<path d="M7250 2720 c-8 -5 -11 -12 -7 -16 4 -4 13 -2 19 4 15 15 7 24 -12 12z"/>
<path d="M7543 2723 c9 -2 25 -2 35 0 9 3 1 5 -18 5 -19 0 -27 -2 -17 -5z"/>
<path d="M6945 2710 c-3 -5 -1 -10 4 -10 6 0 11 5 11 10 0 6 -2 10 -4 10 -3 0
-8 -4 -11 -10z"/>
<path d="M3030 2690 c0 -5 7 -10 16 -10 8 0 12 5 9 10 -3 6 -10 10 -16 10 -5
0 -9 -4 -9 -10z"/>
<path d="M2994 2669 c-3 -6 -2 -15 3 -20 5 -5 9 -1 10 11 2 22 -2 25 -13 9z"/>
<path d="M10815 1728 c-137 -4 -344 -11 -460 -17 -213 -11 -518 -17 -1330 -26
-247 -3 -502 -9 -565 -13 l-115 -7 180 -5 c99 -3 542 -4 985 -3 443 1 870 -2
950 -6 128 -7 134 -8 55 -10 -62 -1 -85 -4 -75 -11 9 -6 164 -10 388 -10 l372
0 0 61 0 60 -67 -3 c-38 -2 -180 -6 -318 -10z m-147 -75 c-10 -2 -28 -2 -40 0
-13 2 -5 4 17 4 22 1 32 -1 23 -4z m155 0 c-7 -2 -21 -2 -30 0 -10 3 -4 5 12
5 17 0 24 -2 18 -5z"/>
<path d="M5237 1653 c18 -2 50 -2 70 0 21 2 7 4 -32 4 -38 0 -55 -2 -38 -4z"/>
<path d="M5528 1653 c7 -3 16 -2 19 1 4 3 -2 6 -13 5 -11 0 -14 -3 -6 -6z"/>
<path d="M0 706 l0 -706 5600 0 5600 0 0 395 0 395 -47 2 c-27 2 -244 4 -483
4 -551 2 -673 6 -682 19 -5 6 -8 6 -8 -2 0 -7 -7 -13 -16 -13 -8 0 -13 4 -10
9 4 5 -9 6 -28 1 -43 -9 -375 -3 -437 8 -25 5 -56 5 -68 0 -13 -4 -27 -5 -32
-2 -5 3 -67 5 -137 4 -426 -3 -973 -1 -1007 3 -22 4 -103 9 -180 12 -86 4
-142 10 -147 17 -4 8 -13 9 -28 2 -13 -6 -49 -7 -89 -2 -36 4 -122 10 -191 14
-122 5 -219 11 -270 14 -14 1 -40 7 -57 12 -18 5 -84 11 -147 13 -64 2 -119 6
-124 9 -8 5 -296 19 -332 17 -80 -6 -194 -6 -285 0 -138 10 -148 12 -157 23
-3 5 -32 9 -64 8 -32 -1 -64 3 -71 10 -8 6 -34 9 -63 6 -28 -3 -50 -2 -50 1 0
3 -44 6 -98 6 -53 0 -119 4 -146 9 -37 8 -51 7 -54 -2 -3 -9 -11 -8 -32 3 -35
18 -43 19 -34 3 6 -10 5 -10 -7 -1 -18 14 -219 15 -219 1 0 -6 -11 -7 -27 -3
-16 4 -76 8 -135 10 -60 2 -113 7 -118 10 -13 8 -113 15 -207 15 -44 0 -74 4
-79 11 -4 8 -3 9 4 5 7 -4 12 -2 12 3 0 11 -13 15 -39 12 -7 -2 -11 4 -9 11 3
7 29 16 63 20 32 4 60 10 62 12 3 2 18 0 34 -4 16 -5 31 -5 34 0 5 9 80 4 96
-6 6 -3 16 0 24 6 8 6 18 9 24 6 5 -3 11 0 14 8 6 16 84 24 432 42 212 11 251
13 330 20 44 3 116 8 160 10 44 2 107 6 140 9 33 3 89 7 124 10 35 2 75 6 90
9 14 3 80 8 147 11 66 3 129 8 140 10 10 2 24 4 29 4 6 1 4 5 -3 9 -12 8 -128
8 -777 -2 -192 -3 -469 -5 -615 -5 -146 0 -276 1 -290 1 -14 0 -95 -3 -180 -6
-85 -3 -242 -8 -349 -11 -107 -2 -196 -7 -199 -9 -2 -3 -13 -1 -23 5 -13 6
-19 6 -19 -1 0 -5 -5 -10 -11 -10 -5 0 -8 3 -6 8 5 7 -190 8 -198 1 -2 -3
-113 -4 -247 -2 -133 1 -247 -2 -253 -6 -11 -9 -75 -15 -120 -11 -16 2 -45 3
-62 3 -18 0 -33 5 -33 10 0 6 -14 6 -32 2 -70 -15 -124 -17 -231 -6 -127 12
-227 14 -374 7 -87 -4 -103 -2 -103 10 0 12 -6 13 -22 8 -13 -5 -36 -7 -53 -6
-16 1 -50 2 -74 1 -24 0 -48 5 -52 12 -5 9 -65 13 -221 15 -117 1 -285 5 -373
9 -88 4 -207 9 -265 11 -58 2 -107 4 -110 5 -3 1 -13 1 -22 0 -10 -1 -18 3
-18 8 0 14 -37 14 -45 0 -4 -6 -14 -7 -24 -4 -20 8 -78 14 -261 26 -80 5 -158
10 -175 12 -16 2 -81 4 -143 5 -73 1 -111 6 -107 12 3 6 2 10 -4 10 -5 0 -11
-5 -13 -11 -2 -6 -15 -9 -28 -7 l-25 5 25 11 25 11 -27 0 c-15 1 -29 -3 -33
-9 -3 -5 -15 -6 -28 -1 -12 5 -58 9 -102 10 -83 2 -110 5 -135 14 -33 12 -80
16 -85 7 -3 -5 -13 -6 -22 -3 -15 6 -14 7 3 14 12 5 -5 8 -46 8 -36 -1 -74 2
-85 6 -17 6 -18 5 -5 -5 13 -10 12 -11 -5 -5 -11 4 -30 10 -42 12 l-22 5 -1
-706z m167 678 c-3 -3 -12 -4 -19 -1 -8 3 -5 6 6 6 11 1 17 -2 13 -5z m4623
-321 c14 -13 16 -19 7 -25 -17 -11 -49 -10 -42 1 8 14 -28 31 -53 24 -29 -7
-28 5 1 17 27 11 61 5 87 -17z m-126 8 c3 -5 -3 -11 -15 -14 -16 -4 -18 -3 -8
9 13 16 16 17 23 5z"/>
<path d="M6775 1250 c-19 -8 -19 -9 3 -9 12 -1 22 4 22 9 0 6 -1 10 -2 9 -2 0
-12 -4 -23 -9z"/>
</g>
</svg>
